<?xml version="1.0" encoding="utf-8"?>
<!-- Generator: Adobe Illustrator 15.0.0, SVG Export Plug-In . SVG Version: 6.00 Build 0)  -->
<!DOCTYPE svg PUBLIC "-//W3C//DTD SVG 1.1//EN" "http://www.w3.org/Graphics/SVG/1.1/DTD/svg11.dtd">
<svg version="1.1" id="Layer_1" xmlns="http://www.w3.org/2000/svg" xmlns:xlink="http://www.w3.org/1999/xlink" x="0px" y="0px"
	 width="150px" height="150px" viewBox="0 0 150 150" enable-background="new 0 0 150 150" xml:space="preserve">
<g id="Layer_4">
	<rect x="1" y="1" fill="#00A7E1" width="150" height="150"/>
</g>
<g id="Layer_3">
	<g id="logo_2_">
		<polygon fill="#FFFFFF" points="83.188,69.125 81,38.5 71.938,38.5 68.5,73.188 68.5,78.813 71.938,113.5 81,113.5 83.188,82.875 
			113.5,80.688 113.5,71.313 		"/>
		<polygon fill="#FFFFFF" points="63.813,69.75 38.5,71.313 38.5,80.688 63.813,82.25 63.5,76.625 63.5,75.375 		"/>
		<path fill="#FFFFFF" d="M92.25,105.375v1.875h1.25c0.313,0,0.625-0.313,0.625-0.625v-0.938c0-0.313-0.313-0.625-0.625-0.625h-1.25
			V105.375z M91,110.375v-6.25h2.5c0.938,0,1.563,0.625,1.563,1.25v1.25c0,0.625-0.313,0.938-0.938,1.25l0.938,2.188h-1.25
			l-0.938-2.188h-1.25v2.5H91L91,110.375z"/>
		<path fill="#FFFFFF" d="M93.188,102.25c-2.813,0-5.313,2.5-5.313,5.313c0,2.813,2.188,5.313,5.313,5.313
			c2.813,0,5.313-2.188,5.313-5.313S96,102.25,93.188,102.25 M99.438,107.563c0,3.438-2.813,5.938-5.938,5.938
			s-5.938-2.813-5.938-5.938s2.813-5.938,5.938-5.938S99.438,104.125,99.438,107.563"/>
	</g>
</g>
</svg>
