<?xml version="1.0" encoding="utf-8"?>
<!-- Generator: Adobe Illustrator 17.1.0, SVG Export Plug-In . SVG Version: 6.00 Build 0)  -->
<!DOCTYPE svg PUBLIC "-//W3C//DTD SVG 1.1//EN" "http://www.w3.org/Graphics/SVG/1.1/DTD/svg11.dtd">
<svg version="1.1" id="TextSize_x5F_White" xmlns="http://www.w3.org/2000/svg" xmlns:xlink="http://www.w3.org/1999/xlink" x="0px"
	 y="0px" width="48px" height="48px" viewBox="0 0 48 48" enable-background="new 0 0 48 48" xml:space="preserve">
<g>
	<path fill="#FFFFFF" d="M15.351,39v-3.59h1.918l-0.59-1.672h-4.918l-0.59,1.672h1.942V39H5v-3.59h1.991l3.983-10.475H8.713v-3.59
		h7.425l5.36,14.064h1.967V39H15.351z M14.293,27.026h-0.122l-1.303,3.836h2.754L14.293,27.026z"/>
</g>
<g opacity="0.5">
	<g>
		<g>
			<g>
				<path fill="#FFFFFF" d="M32.938,39v-5.375h-2.875L29.75,32.9h2.72l-1.002-2.841h-2.843L26.75,25.17h2.922l-2.257-6.518
					l-1.543,3.931L22.938,15.1h-5.006V9h12.617l9.109,23.9H43V39H32.938z"/>
			</g>
		</g>
	</g>
</g>
<g opacity="0.75">
	<g>
		<g>
			<g>
				<path fill="#FFFFFF" d="M24.363,39v-4.095h-2.19l-0.238-0.552h2.072l-0.763-2.164h-2.166l-1.428-3.724h2.226l-1.72-4.966
					l-1.176,2.994l-2.235-5.7h-3.814v-4.647h9.611l6.939,18.207h2.546V39H24.363z"/>
			</g>
		</g>
	</g>
</g>
</svg>
