<?xml version="1.0" encoding="UTF-8" ?>
<!DOCTYPE svg PUBLIC "-//W3C//DTD SVG 1.1//EN" "http://www.w3.org/Graphics/SVG/1.1/DTD/svg11.dtd">
<svg width="128pt" height="128pt" viewBox="0 0 128 128" version="1.1" xmlns="http://www.w3.org/2000/svg">
<path fill="#000000" d=" M 0.00 0.00 L 128.00 0.00 L 128.00 128.00 L 0.00 128.00 L 0.00 0.00 Z" />
<path fill="#ffffff" d=" M 57.22 25.23 C 60.75 22.20 66.51 21.92 70.14 24.90 C 75.92 29.17 81.43 33.80 87.38 37.83 C 88.24 36.24 88.88 34.40 90.36 33.25 C 93.87 32.74 97.44 32.86 100.98 33.06 C 103.14 32.92 105.00 34.91 104.92 37.03 C 105.19 41.59 104.81 46.17 105.12 50.73 C 110.11 55.19 115.86 58.73 120.80 63.25 C 122.70 64.47 121.74 66.77 121.51 68.54 C 119.39 69.05 116.96 69.49 115.24 67.76 C 100.80 56.87 86.32 46.00 71.88 35.11 C 69.54 33.39 67.36 31.40 64.79 30.03 C 62.89 29.50 61.43 31.09 59.97 32.01 C 44.26 43.95 28.42 55.73 12.70 67.67 C 10.89 69.39 6.34 70.08 5.97 66.80 C 5.30 64.24 7.60 62.70 9.30 61.30 C 25.29 49.31 41.27 37.28 57.22 25.23 Z" />
<path fill="#ffffff" d=" M 55.26 45.24 C 57.90 43.39 60.44 40.54 63.98 40.90 C 66.74 40.63 68.93 42.52 70.99 44.06 C 81.32 52.06 91.73 59.96 102.14 67.85 C 103.41 68.97 105.23 70.06 104.96 72.03 C 105.08 83.70 104.97 95.39 105.01 107.06 C 105.19 111.97 101.17 117.09 96.04 116.99 C 89.05 117.05 82.06 117.07 75.07 116.93 C 74.81 108.28 75.16 99.62 75.00 90.96 C 75.19 87.32 71.67 83.83 68.04 84.00 C 64.14 83.93 60.18 83.67 56.32 84.31 C 52.58 85.28 51.13 89.50 51.02 92.97 C 50.83 100.95 51.20 108.95 50.93 116.93 C 44.61 117.06 38.29 117.06 31.97 117.00 C 26.76 117.13 22.57 112.04 22.78 107.00 C 22.56 95.67 22.64 84.32 22.73 72.98 C 22.42 70.39 24.49 68.74 26.32 67.33 C 36.01 60.02 45.66 52.66 55.26 45.24 Z" />
</svg>
