<?xml version="1.0" encoding="utf-8"?>
<!-- Generator: Adobe Illustrator 15.0.0, SVG Export Plug-In . SVG Version: 6.00 Build 0)  -->
<!DOCTYPE svg PUBLIC "-//W3C//DTD SVG 1.1//EN" "http://www.w3.org/Graphics/SVG/1.1/DTD/svg11.dtd">
<svg version="1.1" id="Layer_1" xmlns="http://www.w3.org/2000/svg" xmlns:xlink="http://www.w3.org/1999/xlink" x="0px" y="0px"
	 width="150px" height="150px" viewBox="0 0 150 150" enable-background="new 0 0 150 150" xml:space="preserve">
<g id="BG_Transp">
	<rect fill="#303030" width="150" height="150"/>
</g>
<g id="Pause_9_">
	<g>
		<rect x="85.43" y="21.5" fill="#FFFFFF" width="21.729" height="66.827"/>
		<rect x="42.359" y="21.5" fill="#FFFFFF" width="21.729" height="66.827"/>
	</g>
</g>
<g>
	<path fill="#FFFFFF" d="M10.873,131.604v-16.01h6.433c3.216,0,5.017,2.209,5.017,4.825s-1.848,4.824-5.017,4.824h-4.44v6.36H10.873
		L10.873,131.604z M20.258,120.419c0-1.801-1.296-3.049-3.192-3.049h-4.2v6.097h4.2C18.962,123.467,20.258,122.219,20.258,120.419z"
		/>
	<path fill="#FFFFFF" d="M31.658,131.604v-1.319c-0.96,1.057-2.28,1.608-3.84,1.608c-1.968,0-4.057-1.32-4.057-3.842
		c0-2.592,2.088-3.814,4.057-3.814c1.584,0,2.904,0.504,3.84,1.584v-2.09c0-1.56-1.248-2.447-2.928-2.447
		c-1.392,0-2.521,0.505-3.552,1.607l-0.84-1.248c1.248-1.295,2.736-1.92,4.632-1.92c2.448,0,4.489,1.104,4.489,3.912v7.969H31.658z
		 M31.658,129.155v-2.186c-0.696-0.96-1.92-1.438-3.192-1.438c-1.68,0-2.856,1.056-2.856,2.544c0,1.464,1.176,2.521,2.856,2.521
		C29.737,130.596,30.961,130.115,31.658,129.155z"/>
	<path fill="#FFFFFF" d="M44.882,131.604v-1.631c-0.888,1.008-2.4,1.92-4.128,1.92c-2.424,0-3.696-1.177-3.696-3.697v-8.185h1.8
		v7.634c0,2.039,1.032,2.64,2.592,2.64c1.417,0,2.76-0.815,3.433-1.752v-8.521h1.8v11.593H44.882z"/>
	<path fill="#FFFFFF" d="M49.272,130.066l0.936-1.295c0.768,0.888,2.232,1.655,3.816,1.655c1.776,0,2.736-0.841,2.736-1.991
		c0-2.81-7.177-1.08-7.177-5.377c0-1.801,1.56-3.336,4.32-3.336c1.968,0,3.36,0.743,4.296,1.68l-0.84,1.248
		c-0.696-0.84-1.968-1.465-3.457-1.465c-1.584,0-2.568,0.793-2.568,1.824c0,2.545,7.176,0.864,7.176,5.377
		c0,1.943-1.56,3.504-4.56,3.504C52.057,131.893,50.449,131.314,49.272,130.066z"/>
	<path fill="#FFFFFF" d="M60.769,125.795c0-3.359,2.4-6.072,5.713-6.072c3.504,0,5.568,2.736,5.568,6.217v0.457h-9.385
		c0.144,2.184,1.68,4.008,4.176,4.008c1.32,0,2.664-0.528,3.576-1.465l0.864,1.177c-1.152,1.151-2.712,1.776-4.608,1.776
		C63.241,131.893,60.769,129.419,60.769,125.795z M66.457,121.211c-2.472,0-3.696,2.088-3.792,3.864h7.608
		C70.25,123.348,69.098,121.211,66.457,121.211z"/>
	<path fill="#FFFFFF" d="M92.641,131.604l-1.416-3.553h-7.969l-1.416,3.553h-2.279l6.433-16.01h2.473l6.456,16.01H92.641z
		 M87.24,117.658l-3.408,8.617h6.793L87.24,117.658z"/>
	<path fill="#FFFFFF" d="M104.473,131.604v-1.631c-0.889,1.008-2.399,1.92-4.129,1.92c-2.424,0-3.695-1.177-3.695-3.697v-8.185
		h1.801v7.634c0,2.039,1.031,2.64,2.592,2.64c1.416,0,2.762-0.815,3.434-1.752v-8.521h1.799v11.593H104.473z"/>
	<path fill="#FFFFFF" d="M118.273,131.604v-1.729c-0.864,1.177-2.28,2.018-3.914,2.018c-3.022,0-5.159-2.306-5.159-6.072
		c0-3.696,2.112-6.098,5.159-6.098c1.562,0,2.978,0.769,3.914,2.041v-6.17h1.8v16.01H118.273z M118.273,128.459v-5.256
		c-0.648-1.01-2.041-1.872-3.48-1.872c-2.328,0-3.721,1.92-3.721,4.487c0,2.568,1.393,4.465,3.721,4.465
		C116.232,130.283,117.625,129.468,118.273,128.459z"/>
	<path fill="#FFFFFF" d="M123.359,117.154c0-0.672,0.553-1.225,1.201-1.225c0.672,0,1.224,0.553,1.224,1.225
		s-0.552,1.199-1.224,1.199C123.912,118.354,123.359,117.826,123.359,117.154z M123.672,131.604v-11.593h1.801v11.593H123.672z"/>
	<path fill="#FFFFFF" d="M128.398,125.795c0-3.359,2.209-6.072,5.736-6.072c3.528,0,5.737,2.713,5.737,6.072
		c0,3.36-2.209,6.098-5.737,6.098C130.607,131.893,128.398,129.155,128.398,125.795z M137.977,125.795
		c0-2.354-1.367-4.464-3.84-4.464s-3.865,2.11-3.865,4.464c0,2.376,1.394,4.488,3.865,4.488
		C136.607,130.283,137.977,128.171,137.977,125.795z"/>
</g>
</svg>
