<?xml version="1.0" encoding="utf-8"?>
<!-- Generator: Adobe Illustrator 15.0.0, SVG Export Plug-In . SVG Version: 6.00 Build 0)  -->
<!DOCTYPE svg PUBLIC "-//W3C//DTD SVG 1.1//EN" "http://www.w3.org/Graphics/SVG/1.1/DTD/svg11.dtd">
<svg version="1.1" id="Layer_1" xmlns="http://www.w3.org/2000/svg" xmlns:xlink="http://www.w3.org/1999/xlink" x="0px" y="0px"
	 width="123px" height="130px" viewBox="0 0 123 130" enable-background="new 0 0 123 130" xml:space="preserve">
<g id="BG_Transp">
	<rect fill="#303030" width="123" height="130"/>
</g>
<g id="Pause_9_">
	<g>
		<rect x="71.93" y="14.5" fill="#FFFFFF" width="21.729" height="66.827"/>
		<rect x="28.859" y="14.5" fill="#FFFFFF" width="21.729" height="66.827"/>
	</g>
</g>
<g>
	<path fill="#FFFFFF" d="M4.432,121.635V107.37h5.732c2.865,0,4.47,1.968,4.47,4.299c0,2.332-1.646,4.299-4.47,4.299H6.208v5.667
		H4.432L4.432,121.635z M12.794,111.669c0-1.604-1.154-2.716-2.844-2.716H6.208v5.432H9.95
		C11.64,114.385,12.794,113.273,12.794,111.669z"/>
	<path fill="#FFFFFF" d="M22.952,121.635v-1.175c-0.855,0.941-2.032,1.433-3.422,1.433c-1.753,0-3.615-1.176-3.615-3.423
		c0-2.31,1.86-3.399,3.615-3.399c1.411,0,2.588,0.45,3.422,1.412v-1.862c0-1.39-1.112-2.18-2.609-2.18
		c-1.24,0-2.246,0.45-3.165,1.432l-0.749-1.112c1.112-1.154,2.438-1.711,4.127-1.711c2.181,0,4,0.984,4,3.486v7.1H22.952z
		 M22.952,119.453v-1.947c-0.621-0.855-1.711-1.281-2.845-1.281c-1.497,0-2.544,0.94-2.544,2.267c0,1.305,1.048,2.246,2.544,2.246
		C21.24,120.737,22.331,120.309,22.952,119.453z"/>
	<path fill="#FFFFFF" d="M34.734,121.635v-1.453c-0.791,0.898-2.138,1.711-3.678,1.711c-2.16,0-3.293-1.049-3.293-3.294v-7.293
		h1.604v6.802c0,1.817,0.919,2.353,2.31,2.353c1.263,0,2.459-0.726,3.059-1.561v-7.593h1.604v10.33h-1.605V121.635z"/>
	<path fill="#FFFFFF" d="M38.646,120.266l0.834-1.154c0.685,0.791,1.989,1.475,3.4,1.475c1.582,0,2.438-0.749,2.438-1.773
		c0-2.505-6.395-0.963-6.395-4.791c0-1.605,1.39-2.973,3.849-2.973c1.753,0,2.994,0.661,3.828,1.497l-0.749,1.111
		c-0.62-0.748-1.753-1.305-3.08-1.305c-1.412,0-2.288,0.706-2.288,1.624c0,2.269,6.394,0.771,6.394,4.791
		c0,1.731-1.39,3.123-4.063,3.123C41.128,121.893,39.695,121.378,38.646,120.266z"/>
	<path fill="#FFFFFF" d="M48.89,116.46c0-2.994,2.138-5.411,5.09-5.411c3.122,0,4.961,2.438,4.961,5.539v0.407H50.58
		c0.128,1.947,1.497,3.571,3.721,3.571c1.176,0,2.374-0.47,3.186-1.305l0.771,1.049c-1.027,1.025-2.417,1.582-4.106,1.582
		C51.093,121.893,48.89,119.688,48.89,116.46z M53.958,112.375c-2.203,0-3.293,1.86-3.378,3.443h6.779
		C57.338,114.279,56.312,112.375,53.958,112.375z"/>
	<path fill="#FFFFFF" d="M77.288,121.635l-1.262-3.165h-7.101l-1.262,3.165h-2.03l5.732-14.265h2.203l5.752,14.265H77.288z
		 M72.477,109.21l-3.037,7.678h6.053L72.477,109.21z"/>
	<path fill="#FFFFFF" d="M87.831,121.635v-1.453c-0.792,0.898-2.138,1.711-3.68,1.711c-2.159,0-3.292-1.049-3.292-3.294v-7.293
		h1.605v6.802c0,1.817,0.918,2.353,2.309,2.353c1.262,0,2.462-0.726,3.061-1.561v-7.593h1.603v10.33h-1.605V121.635z"/>
	<path fill="#FFFFFF" d="M100.127,121.635v-1.54c-0.77,1.049-2.031,1.798-3.487,1.798c-2.692,0-4.597-2.055-4.597-5.41
		c0-3.293,1.882-5.434,4.597-5.434c1.392,0,2.653,0.686,3.487,1.818v-5.497h1.604v14.265H100.127z M100.127,118.833v-4.683
		c-0.577-0.9-1.818-1.668-3.101-1.668c-2.074,0-3.315,1.71-3.315,3.998c0,2.287,1.241,3.979,3.315,3.979
		C98.309,120.459,99.55,119.732,100.127,118.833z"/>
	<path fill="#FFFFFF" d="M104.659,108.761c0-0.599,0.492-1.091,1.07-1.091c0.599,0,1.09,0.492,1.09,1.091s-0.491,1.068-1.09,1.068
		C105.151,109.829,104.659,109.359,104.659,108.761z M104.938,121.635v-10.329h1.604v10.329H104.938z"/>
	<path fill="#FFFFFF" d="M109.148,116.46c0-2.994,1.969-5.411,5.11-5.411c3.145,0,5.112,2.417,5.112,5.411
		c0,2.993-1.968,5.433-5.112,5.433C111.117,121.893,109.148,119.453,109.148,116.46z M117.683,116.46
		c0-2.098-1.218-3.978-3.421-3.978s-3.444,1.88-3.444,3.978c0,2.116,1.243,3.999,3.444,3.999S117.683,118.576,117.683,116.46z"/>
</g>
</svg>
